<svg width="378" height="284" viewBox="0 0 378 284" fill="none" xmlns="http://www.w3.org/2000/svg">
<path d="M2 282H376M95.9608 282C95.64 280.68 93.7347 279.952 92.9373 279.237C91.0844 277.574 89.2737 275.858 87.3943 274.248C83.6333 271.025 79.9691 267.847 76.5321 264.077C66.5705 253.152 57.9071 241.71 55.0316 223.972C53.5089 214.578 51.1572 205.25 50.4964 195.648C49.911 187.142 49.3553 178.626 49.1246 170.088C48.5683 149.498 49.9963 129.252 51.0003 108.759C51.7592 93.2703 54.2253 78.1705 56.3754 63.0118C57.904 52.2346 62.0104 43.7803 67.2376 35.5327C72.2583 27.6109 79.6918 20.7154 86.8624 17.111C94.3944 13.3249 102.398 10.1265 110.35 8.59095C122.152 6.3122 133.459 3.60174 145.457 3.60174C159.966 3.60174 174.41 2.22011 188.961 2.22011C200.334 2.22011 211.68 1.72487 223.06 2.22011C230.869 2.55995 238.659 4.20129 246.352 6.01959C249.718 6.81523 253.094 7.07975 256.458 8.09203C260.759 9.3862 265.085 11.4855 269.42 12.4288C279.652 14.6552 289.223 21.2977 298.647 26.7056C304.683 30.1692 309.516 33.949 312.253 42.2874C316.572 55.444 320.254 68.853 323.227 82.8919C327.598 103.531 328.77 123.656 328.77 145.065C328.77 180.003 331.629 220.728 317.18 251.604C313.05 260.431 308.085 270.271 301.055 274.555C296.63 277.251 292.404 279.966 287.953 282" stroke="black" stroke-width="3" stroke-linecap="round"/>
</svg>
